<?xml version="1.0" encoding="UTF-8"?>
<svg id="Layer_1" xmlns="http://www.w3.org/2000/svg" version="1.1" viewBox="0 0 80 48">
  <!-- Generator: Adobe Illustrator 29.3.0, SVG Export Plug-In . SVG Version: 2.1.0 Build 146)  -->
  <g>
    <path fill="white" d="M3.16,22.9v-14.5c0-2.34,0-3.62-1.88-4.28h5.73c-1.88.66-1.88,1.94-1.88,4.28v5.53h6.29v-5.53c0-2.34,0-3.62-1.88-4.28h5.73c-1.88.66-1.88,1.94-1.88,4.28v14.5c0,2.34,0,3.62,1.88,4.28h-5.73c1.88-.66,1.88-1.94,1.88-4.28v-8.63h-6.29v8.63c0,2.34,0,3.62,1.88,4.28H1.28c1.88-.66,1.88-1.94,1.88-4.28Z"/>
    <path fill="white" d="M15.77,15.62c0-6.65,2.21-12.06,7.84-12.06s7.84,5.4,7.84,12.06-2.21,12.09-7.84,12.09-7.84-5.4-7.84-12.09ZM23.61,27.38c3.95,0,5.53-5.27,5.53-11.76s-1.58-11.73-5.53-11.73-5.53,5.27-5.53,11.73,1.58,11.76,5.53,11.76ZM21.34,1.33h4.55v.66h-4.55v-.66Z"/>
    <path fill="white" d="M32.44,17.04h.33c0,6.13,2.11,9.12,5.34,9.12,2.47,0,3.82-1.81,3.82-3.69,0-6.95-8.47-6.75-8.47-13.74,0-3.03,2.24-5.14,5.07-5.14,2.31,0,3.89,1.61,4.65,1.61v3.16c-1.38-3.39-2.57-4.45-4.42-4.45-2.31,0-3.29,1.98-3.29,3.85,0,6.79,8.6,6,8.6,14.17,0,3.39-2.44,5.5-5.8,5.5-3.52,0-5.83-2.41-5.83-10.41Z"/>
    <path fill="white" d="M46.47,22.9v-14.5c0-2.34,0-3.62-1.88-4.28h7.61c1.48,0,3.59,0,4.15-.46v5.3c-1.02-4.08-1.94-4.51-4.28-4.51h-3.62v9.49h5.67v.33h-5.67v12.58h3.95c2.34,0,3.26-.43,4.28-4.51v5.3c-.56-.46-2.8-.46-4.28-.46h-7.81c1.88-.66,1.88-1.94,1.88-4.28Z"/>
    <path fill="white" d="M59.71,22.9v-14.5c0-2.34,0-3.62-1.88-4.28h5.73c-1.88.66-1.88,1.94-1.88,4.28v9.42l6.36-11c.69-1.35.79-2.21-.33-2.7h4.12c-2.24.66-2.96,1.94-4.35,4.28l-2.11,3.69c5.27.82,6.62,4.91,6.65,12.45,0,.92,0,2.27.56,2.27-.07.2-.33.63-1.12.63-.89,0-1.68-.46-1.75-2.57,0-7.35-.79-11.5-4.55-12.49l-3.49,6.06v4.45c0,2.34,0,3.62,1.88,4.28h-5.73c1.88-.66,1.88-1.94,1.88-4.28Z"/>
    <path fill="white" d="M75.39,22.9v-14.5c0-2.34,0-3.62-1.88-4.28h5.73c-1.88.66-1.88,1.94-1.88,4.28v14.5c0,2.34,0,3.62,1.88,4.28h-5.73c1.88-.66,1.88-1.94,1.88-4.28Z"/>
  </g>
  <rect fill="white" x=".76" y="34.37" width="78.25" height="1.6"/>
  <rect fill="white" x=".76" y="32.5" width="78.25" height=".8"/>
  <rect fill="white" x=".76" y="31.03" width="78.25" height=".4"/>
  <rect fill="white" x=".76" y="37.05" width="78.25" height="3.03"/>
  <rect fill="white" x=".76" y="41.01" width="78.25" height="5.66"/>
</svg>